<svg width="24" height="24" viewBox="0 0 24 24" fill="none" xmlns="http://www.w3.org/2000/svg">
<path d="M10.0617 17.5725C9.9304 17.5725 9.79447 17.535 9.67728 17.46C1.4179 12.1866 1.46009 7.82254 1.50697 7.22723C1.51634 5.8116 2.03666 4.47566 2.97416 3.46316C3.96322 2.39441 5.30384 1.82723 6.70541 1.87879C7.93822 1.92098 9.12884 2.42723 10.0617 3.29441C10.9945 2.42723 12.1851 1.92098 13.4179 1.87879C14.8288 1.82254 16.1601 2.39441 17.1492 3.46316C18.0867 4.47566 18.607 5.8116 18.6163 7.22723C18.6632 7.82254 18.7054 12.1819 10.446 17.46C10.3288 17.535 10.1976 17.5725 10.0617 17.5725Z" fill="#376EB6"/>
<path d="M16.9945 21.2991C16.8304 21.2991 16.6663 21.2522 16.5257 21.1632C11.646 18.046 11.5992 15.3835 11.6367 14.8819C11.6413 13.9913 11.9835 13.1147 12.5976 12.4538C13.2304 11.7741 14.0742 11.3991 14.9695 11.3991H15.0867C15.7663 11.4225 16.432 11.6569 16.9898 12.0741C17.5523 11.6616 18.2132 11.4225 18.8929 11.3991C18.9304 11.3991 18.9773 11.3991 19.0195 11.3991C19.9148 11.3991 20.7538 11.7741 21.382 12.4585C21.996 13.1241 22.3382 13.996 22.3429 14.9241C22.3804 15.3929 22.3382 18.0507 17.4538 21.1725C17.3226 21.2522 17.1585 21.2991 16.9945 21.2991Z" fill="#48B8B9"/>
<path d="M19.0242 11.8538C19.7929 11.8538 20.5101 12.1772 21.0492 12.7632C21.5882 13.3444 21.8835 14.1085 21.8882 14.9147C21.9163 15.2522 21.9398 17.7507 17.2148 20.7694C17.1492 20.8116 17.0695 20.835 16.9945 20.835C16.9195 20.835 16.8398 20.8116 16.7742 20.7694C12.0445 17.7507 12.0726 15.2522 12.1007 14.9147C12.1054 14.1038 12.4054 13.3397 12.9398 12.7632C13.4835 12.1772 14.2101 11.8538 14.9742 11.8538C15.007 11.8538 15.0398 11.8538 15.0726 11.8538C15.7804 11.8772 16.4601 12.1679 16.9945 12.6647C17.5288 12.1679 18.2085 11.8772 18.9163 11.8538C18.9538 11.8538 18.9867 11.8538 19.0242 11.8538ZM19.0242 10.9304C18.9773 10.9304 18.9257 10.9304 18.8788 10.935C18.2179 10.9585 17.5663 11.16 16.9945 11.5116C16.4226 11.1554 15.771 10.9538 15.1054 10.935C15.0632 10.935 15.021 10.935 14.9742 10.935C13.9429 10.935 12.982 11.3616 12.2601 12.1397C11.5757 12.8804 11.1913 13.8554 11.1773 14.8819C11.1257 15.6975 11.3788 18.421 16.2773 21.5522C16.4929 21.6882 16.7413 21.7632 16.9945 21.7632C17.2476 21.7632 17.496 21.6929 17.7117 21.5522C22.6101 18.421 22.8679 15.6975 22.8117 14.8819C22.7976 13.8554 22.4132 12.8804 21.7288 12.1397C21.007 11.3616 20.0507 10.9304 19.0242 10.9304Z" fill="white"/>
<path d="M20.1679 15.721H18.832L18.007 14.5866C17.9507 14.4975 17.8523 14.446 17.7445 14.446C17.6367 14.446 17.5382 14.4929 17.4773 14.5819L16.1507 16.4429L15.771 15.871C15.7101 15.7819 15.6117 15.7304 15.5038 15.7304H14.6038H14.4163H13.5867C13.4085 15.7304 13.2632 15.8757 13.2632 16.0538C13.2632 16.2319 13.4085 16.3772 13.5867 16.3772H14.6038C14.6085 16.3772 14.6132 16.3725 14.6226 16.3725H15.3351L15.8788 17.1882C15.9351 17.2772 16.0335 17.3288 16.1413 17.3288H16.146C16.2492 17.3288 16.3476 17.2772 16.4038 17.1929L17.7304 15.3319L18.4054 16.2272C18.471 16.3257 18.5788 16.3679 18.6867 16.3632C18.696 16.3632 18.7054 16.3679 18.7148 16.3679H20.1679C20.346 16.3679 20.4913 16.2225 20.4913 16.0444C20.4913 15.8663 20.346 15.721 20.1679 15.721Z" fill="white"/>
</svg>
