<svg width="24" height="24" viewBox="0 0 24 24" fill="none" xmlns="http://www.w3.org/2000/svg">
<path fill-rule="evenodd" clip-rule="evenodd" d="M11.6144 21.8786C15.2037 21.8786 18.1073 19.1036 18.1073 15.6857C18.1073 14.7 17.8715 13.7679 17.443 12.9429L11.8394 2.7C11.7965 2.625 11.7108 2.57143 11.6251 2.57143C11.5287 2.57143 11.4537 2.61428 11.4108 2.7L5.80726 12.9429C5.37869 13.7679 5.14297 14.7 5.14297 15.6857C5.12154 19.1036 8.02511 21.8786 11.6144 21.8786Z" fill="#3D71B7"/>
<path fill-rule="evenodd" clip-rule="evenodd" d="M6.51664 16.6133C6.63136 16.5849 6.74744 16.6548 6.77591 16.7695C7.12271 18.1669 8.15484 19.3153 9.52141 19.8804C9.63064 19.9256 9.68257 20.0508 9.6374 20.16C9.59223 20.2692 9.46706 20.3211 9.35784 20.276C7.8744 19.6625 6.74225 18.4109 6.36048 16.8726C6.33201 16.7579 6.40193 16.6418 6.51664 16.6133Z" fill="white"/>
<path fill-rule="evenodd" clip-rule="evenodd" d="M7.04081 13.4162C7.14604 13.4701 7.1877 13.599 7.13386 13.7043C6.90896 14.1438 6.75543 14.6247 6.68377 15.1263C6.66705 15.2433 6.55865 15.3246 6.44164 15.3079C6.32463 15.2912 6.24332 15.1828 6.26004 15.0658C6.33837 14.5174 6.50628 13.9911 6.7528 13.5093C6.80664 13.4041 6.93559 13.3624 7.04081 13.4162Z" fill="white"/>
<path d="M16.179 13.8321C18.114 13.8321 19.6826 12.2635 19.6826 10.3285C19.6826 8.39358 18.114 6.82497 16.179 6.82497C14.244 6.82497 12.6754 8.39358 12.6754 10.3285C12.6754 12.2635 14.244 13.8321 16.179 13.8321Z" fill="#48B7B8"/>
<path fill-rule="evenodd" clip-rule="evenodd" d="M16.1787 7.05718C14.3719 7.05718 12.9073 8.52183 12.9073 10.3286C12.9073 12.1353 14.3719 13.6 16.1787 13.6C17.9854 13.6 19.4501 12.1353 19.4501 10.3286C19.4501 8.52183 17.9854 7.05718 16.1787 7.05718ZM12.4429 10.3286C12.4429 8.26537 14.1155 6.59282 16.1787 6.59282C18.2419 6.59282 19.9144 8.26537 19.9144 10.3286C19.9144 12.3918 18.2419 14.0643 16.1787 14.0643C14.1155 14.0643 12.4429 12.3918 12.4429 10.3286Z" fill="white"/>
<path fill-rule="evenodd" clip-rule="evenodd" d="M15.7355 8.00014H16.6034C16.6676 8.00014 16.7212 8.05371 16.7212 8.11799V9.61799H18.2212C18.2855 9.61799 18.3391 9.67157 18.3391 9.73585V10.6037C18.3391 10.668 18.2855 10.7216 18.2212 10.7216H16.7212V12.2216C16.7212 12.2859 16.6676 12.3394 16.6034 12.3394H15.7355C15.6712 12.3394 15.6176 12.2859 15.6176 12.2216V10.7216H14.1176C14.0534 10.7216 13.9998 10.668 13.9998 10.6037V9.73585C13.9998 9.67157 14.0534 9.61799 14.1176 9.61799H15.6176V8.11799C15.6176 8.05371 15.6712 8.00014 15.7355 8.00014Z" fill="white"/>
</svg>
