<svg width="25" height="24" viewBox="0 0 25 24" fill="none" xmlns="http://www.w3.org/2000/svg">
<path fill-rule="evenodd" clip-rule="evenodd" d="M7.81774 2.57151H16.5713C17.2999 2.57151 17.8892 3.16081 17.8892 3.88939V13.8967C17.8892 16.3396 16.3356 18.4396 14.1606 19.2432V17.111H13.7963V14.9146C13.7963 14.0574 13.0035 13.4788 12.1892 13.4788C11.3856 13.4788 10.582 14.0681 10.582 14.9146V17.111H10.2285V19.2432C8.05345 18.4289 6.49988 16.3396 6.49988 13.8967V3.87867C6.49988 3.16081 7.08917 2.57151 7.81774 2.57151Z" fill="#376EB5"/>
<path d="M13.4534 17.7964H10.9356V20.8393H13.4534V17.7964Z" fill="#376EB5"/>
<path fill-rule="evenodd" clip-rule="evenodd" d="M12.1891 14.1642C11.6963 14.1642 11.2784 14.5071 11.2784 14.9142V17.6143H13.1106V14.9142C13.1106 14.5071 12.6927 14.1642 12.1891 14.1642ZM12.2106 15.2999C11.8999 15.2999 11.6427 15.1285 11.6427 14.9357C11.6427 14.7428 11.8999 14.5714 12.2106 14.5714C12.532 14.5714 12.7891 14.7428 12.7891 14.9357C12.7891 15.1285 12.532 15.2999 12.2106 15.2999Z" fill="#376EB5"/>
<path fill-rule="evenodd" clip-rule="evenodd" d="M8.3424 11.1534H10.3353C10.4103 11.1534 10.4745 11.2177 10.4745 11.2927V12.2677C10.4745 12.3427 10.4103 12.4177 10.3353 12.4177H8.3424C8.2674 12.4177 8.20312 12.3427 8.20312 12.2677V11.2927C8.21383 11.207 8.2674 11.1534 8.3424 11.1534Z" fill="white"/>
<path fill-rule="evenodd" clip-rule="evenodd" d="M14.3213 11.1534H16.3035C16.3785 11.1534 16.4535 11.2177 16.4535 11.2927V12.2677C16.4535 12.3427 16.3785 12.4177 16.3035 12.4177H14.3213C14.2356 12.4177 14.1713 12.3427 14.1713 12.2677V11.2927C14.1713 11.207 14.2356 11.1534 14.3213 11.1534Z" fill="white"/>
<path fill-rule="evenodd" clip-rule="evenodd" d="M11.3213 11.1534H13.3141C13.3891 11.1534 13.4427 11.2177 13.4427 11.2927V12.2677C13.4427 12.3427 13.3784 12.4177 13.3141 12.4177H11.3213C11.2463 12.4177 11.182 12.3427 11.182 12.2677V11.2927C11.1927 11.207 11.2463 11.1534 11.3213 11.1534Z" fill="white"/>
<path fill-rule="evenodd" clip-rule="evenodd" d="M8.58906 4.68222H15.9712C16.1319 4.68222 16.2819 4.82151 16.2819 4.99294V9.32158C16.2819 9.4823 16.1319 9.6323 15.9712 9.6323H8.58906C8.42835 9.6323 8.27835 9.4823 8.27835 9.32158V4.99294C8.26763 4.81079 8.41763 4.68222 8.58906 4.68222Z" fill="#48B7B8"/>
</svg>
