<svg width="24" height="24" viewBox="0 0 24 24" fill="none" xmlns="http://www.w3.org/2000/svg">
<path d="M19.3092 6.29999L17.6485 6.31071C17.4664 6.31071 17.2842 6.24642 17.1449 6.12856C15.0878 4.27499 11.7449 4.28571 11.7449 4.28571C11.7449 4.28571 8.40209 4.27499 6.34495 6.12856C6.20566 6.24642 6.02352 6.31071 5.84138 6.31071L4.16995 6.29999C3.74138 6.29999 3.39852 6.65356 3.43066 7.08214L4.19138 19.4036C4.21281 19.7893 4.53423 20.0893 4.91995 20.0893H11.7342H18.5485C18.9342 20.0893 19.2557 19.7893 19.2771 19.4036L20.0378 7.08214C20.07 6.65356 19.7271 6.28928 19.3092 6.29999Z" fill="#376EB5"/>
<path d="M11.7985 5.37857H11.8628C11.8414 5.37857 11.7557 5.37857 11.7342 5.37857C11.7128 5.37857 11.5949 5.37857 11.5735 5.37857H11.6699C9.02352 5.42143 7.42709 6.46071 6.7628 7.00714C6.54852 7.17857 6.50566 7.48928 6.66637 7.70357L8.8628 10.8214C9.0128 11.0357 9.3128 11.1107 9.54852 10.9714C9.7628 10.8429 9.97709 10.725 10.2128 10.6393C10.4057 10.5643 10.5985 10.4893 10.8021 10.4464C10.9628 10.4036 11.1128 10.3714 11.2735 10.35C11.4771 10.3179 11.6914 10.3179 11.8949 10.3286C12.0771 10.3393 12.2592 10.3607 12.4307 10.3929C12.6128 10.425 12.7949 10.4786 12.9664 10.5321C13.1807 10.6071 13.3949 10.6929 13.5985 10.8C13.7057 10.8536 13.8128 10.9179 13.9199 10.9821C14.1449 11.1214 14.4449 11.0571 14.6057 10.8321L16.8021 7.71429C16.9628 7.48928 16.9199 7.18928 16.7057 7.01786C16.0521 6.46071 14.4449 5.42143 11.7985 5.37857Z" fill="white"/>
<path fill-rule="evenodd" clip-rule="evenodd" d="M8.04583 6.00559C8.10191 5.97452 8.17256 5.9948 8.20363 6.05088L8.64292 6.84373C8.67399 6.89982 8.65372 6.97047 8.59763 7.00154C8.54155 7.03261 8.4709 7.01234 8.43983 6.95626L8.00054 6.1634C7.96947 6.10732 7.98974 6.03667 8.04583 6.00559Z" fill="#376EB5"/>
<path fill-rule="evenodd" clip-rule="evenodd" d="M9.90125 5.35035C9.96418 5.33806 10.0252 5.3791 10.0374 5.44202L10.2196 6.37417C10.2319 6.43709 10.1908 6.49807 10.1279 6.51036C10.065 6.52266 10.004 6.48162 9.99172 6.41869L9.80958 5.48655C9.79728 5.42362 9.83833 5.36265 9.90125 5.35035Z" fill="#376EB5"/>
<path fill-rule="evenodd" clip-rule="evenodd" d="M15.4762 6.00559C15.5323 6.03667 15.5526 6.10732 15.5215 6.1634L15.0822 6.95626C15.0511 7.01234 14.9805 7.03261 14.9244 7.00154C14.8683 6.97047 14.848 6.89982 14.8791 6.84373L15.3184 6.05088C15.3495 5.9948 15.4201 5.97452 15.4762 6.00559Z" fill="#376EB5"/>
<path fill-rule="evenodd" clip-rule="evenodd" d="M13.5351 5.35035C13.598 5.36265 13.639 5.42362 13.6267 5.48655L13.4446 6.41869C13.4323 6.48162 13.3713 6.52266 13.3084 6.51036C13.2455 6.49807 13.2044 6.43709 13.2167 6.37417L13.3989 5.44202C13.4112 5.3791 13.4721 5.33806 13.5351 5.35035Z" fill="#376EB5"/>
<path fill-rule="evenodd" clip-rule="evenodd" d="M11.7664 5.11249C11.8305 5.11249 11.8825 5.16446 11.8825 5.22858V6.62143C11.8825 6.68555 11.8305 6.73752 11.7664 6.73752C11.7023 6.73752 11.6503 6.68555 11.6503 6.62143V5.22858C11.6503 5.16446 11.7023 5.11249 11.7664 5.11249Z" fill="#376EB5"/>
<path d="M11.3271 10.0286L11.67 8.27142C11.6807 8.20713 11.8521 8.20713 11.8628 8.27142L12.2164 10.0286C12.2271 10.0714 12.1735 10.1036 12.1092 10.0928H11.4235C11.3592 10.0928 11.3164 10.0607 11.3271 10.0286Z" fill="#48B7B8"/>
<path fill-rule="evenodd" clip-rule="evenodd" d="M5.30743 19.1571C5.30743 19.093 5.35941 19.041 5.42352 19.041H6.56995C6.63407 19.041 6.68604 19.093 6.68604 19.1571C6.68604 19.2212 6.63407 19.2732 6.56995 19.2732H5.42352C5.35941 19.2732 5.30743 19.2212 5.30743 19.1571Z" fill="white"/>
<path fill-rule="evenodd" clip-rule="evenodd" d="M7.45029 19.1571C7.45029 19.093 7.50226 19.041 7.56638 19.041H10.4914C10.5555 19.041 10.6075 19.093 10.6075 19.1571C10.6075 19.2212 10.5555 19.2732 10.4914 19.2732H7.56638C7.50226 19.2732 7.45029 19.2212 7.45029 19.1571Z" fill="white"/>
</svg>
