<svg width="48" height="48" viewBox="0 0 48 48" fill="none" xmlns="http://www.w3.org/2000/svg">
<path d="M0 24C0 10.7452 10.7452 0 24 0C37.2548 0 48 10.7452 48 24C48 37.2548 37.2548 48 24 48C10.7452 48 0 37.2548 0 24Z" fill="#ECF3FF"/>
<path d="M17.4627 33.4127L13.1252 29.0752C13.0502 29.0002 13.0002 28.9002 13.0002 28.7877C13.0002 28.6751 13.0377 28.5751 13.1252 28.5001L17.6252 24.0126C17.6877 23.9501 17.7377 23.8751 17.7502 23.8126L18.1877 22.225C18.3377 21.675 21.3252 18.475 21.8752 17.8499L26.1502 13.6499C26.6002 13.2124 27.3252 13.1999 27.7752 13.6499C28.2252 14.0999 28.1877 14.7999 27.7752 15.2749L26.0002 17.2749L29.8252 13.3374C30.2627 12.8873 31.0002 12.8873 31.4502 13.3374C31.9002 13.7874 31.8877 14.5124 31.4502 14.9624L27.6252 18.9L32.5877 13.9749C33.0377 13.5249 33.7627 13.5249 34.2127 13.9749C34.6627 14.4249 34.6502 15.1374 34.2127 15.5999L29.3627 20.6375L33.7752 16.2249C34.2252 15.7749 34.9502 15.7749 35.4002 16.2249C35.8502 16.6749 35.8502 17.3999 35.4002 17.8499L28.6252 24.6251L31.3252 23.3625C33.0377 22.7375 34.0377 24.8626 32.1252 25.6626L28.2252 27.5501C27.8252 27.7376 27.4627 27.8501 27.0377 27.9751L24.3127 28.8252C23.3377 29.1252 22.7252 28.9502 22.5002 29.0877C22.2877 29.2127 19.1252 32.3502 18.0502 33.4252C17.8752 33.5627 17.6252 33.5627 17.4627 33.4127Z" fill="#376EB6"/>
<path fill-rule="evenodd" clip-rule="evenodd" d="M30.7132 32.4377C30.4757 32.6877 30.0757 32.6877 29.8257 32.4502L28.0507 30.7252C27.8007 30.4877 27.8007 30.0877 28.0382 29.8377C28.2757 29.5877 28.6757 29.5877 28.9257 29.8252L30.7007 31.5502C30.9382 31.7877 30.9507 32.2002 30.7132 32.4377Z" fill="#48B8B9"/>
<path fill-rule="evenodd" clip-rule="evenodd" d="M27.4378 22.5127C27.1878 22.2627 26.7753 22.2627 26.5253 22.5127C26.2753 22.7627 26.2753 23.1752 26.5253 23.4252C26.7753 23.6752 27.1878 23.6752 27.4378 23.4252C27.6878 23.1752 27.6878 22.7752 27.4378 22.5127Z" fill="white"/>
<path fill-rule="evenodd" clip-rule="evenodd" d="M17.3129 30.0749C17.0629 29.8249 16.6504 29.8249 16.4004 30.0749C16.1504 30.3249 16.1504 30.7374 16.4004 30.9874C16.6504 31.2374 17.0629 31.2374 17.3129 30.9874C17.5629 30.7374 17.5629 30.3249 17.3129 30.0749Z" fill="white"/>
<path fill-rule="evenodd" clip-rule="evenodd" d="M17.2628 26.7124C17.0128 26.4624 16.6003 26.4624 16.3503 26.7124C16.1003 26.9624 16.1003 27.3749 16.3503 27.6249C16.6003 27.8749 17.0128 27.8749 17.2628 27.6249C17.5128 27.3749 17.5128 26.9624 17.2628 26.7124Z" fill="white"/>
<path fill-rule="evenodd" clip-rule="evenodd" d="M20.4628 27.3003C20.2128 27.0503 19.8003 27.0503 19.5503 27.3003C19.3003 27.5503 19.3003 27.9628 19.5503 28.2128C19.8003 28.4628 20.2128 28.4628 20.4628 28.2128C20.7128 27.9753 20.7128 27.5628 20.4628 27.3003Z" fill="white"/>
<path fill-rule="evenodd" clip-rule="evenodd" d="M21.0128 23.8127C20.7628 23.5627 20.3503 23.5627 20.1003 23.8127C19.8503 24.0627 19.8503 24.4752 20.1003 24.7252C20.3503 24.9752 20.7628 24.9752 21.0128 24.7252C21.2628 24.4752 21.2628 24.0627 21.0128 23.8127Z" fill="white"/>
<path fill-rule="evenodd" clip-rule="evenodd" d="M24.2257 26.2625C23.9757 26.0125 23.5632 26.0125 23.3132 26.2625C23.0632 26.5125 23.0632 26.925 23.3132 27.175C23.5632 27.425 23.9757 27.425 24.2257 27.175C24.4757 26.925 24.4757 26.5125 24.2257 26.2625Z" fill="white"/>
<path fill-rule="evenodd" clip-rule="evenodd" d="M24.4378 22.8502C24.1878 22.6002 23.7753 22.6002 23.5253 22.8502C23.2753 23.1002 23.2753 23.5127 23.5253 23.7627C23.7753 24.0127 24.1878 24.0127 24.4378 23.7627C24.6878 23.5127 24.6878 23.1002 24.4378 22.8502Z" fill="white"/>
<path fill-rule="evenodd" clip-rule="evenodd" d="M24.5503 19.5376C24.3003 19.2876 23.8878 19.2876 23.6378 19.5376C23.3878 19.7876 23.3878 20.2001 23.6378 20.4501C23.8878 20.7001 24.3003 20.7001 24.5503 20.4501C24.8003 20.2126 24.8003 19.8001 24.5503 19.5376Z" fill="white"/>
<path fill-rule="evenodd" clip-rule="evenodd" d="M15.0759 16.0625C15.3134 15.8125 15.7134 15.8125 15.9634 16.05L17.7384 17.775C17.9884 18.0125 17.9884 18.4126 17.7509 18.6626C17.5134 18.9126 17.1134 18.9126 16.8634 18.6751L15.0884 16.95C14.8384 16.7 14.8259 16.3 15.0759 16.0625Z" fill="#48B8B9"/>
<path fill-rule="evenodd" clip-rule="evenodd" d="M18.6256 13.8871C18.2756 13.8871 18.0006 14.1746 18.0006 14.5246L18.0381 16.9871C18.0381 17.3371 18.3256 17.6122 18.6756 17.6122C19.0256 17.6122 19.3006 17.3246 19.3006 16.9746L19.2631 14.4996C19.2506 14.1621 18.9631 13.8746 18.6256 13.8871Z" fill="#48B8B9"/>
<path fill-rule="evenodd" clip-rule="evenodd" d="M27.1634 34.6124C27.5134 34.6124 27.7884 34.3249 27.7884 33.9749L27.7509 31.4999C27.7509 31.1499 27.4634 30.8749 27.1134 30.8749C26.7634 30.8749 26.4884 31.1624 26.4884 31.5124L26.5259 33.9874C26.5259 34.3374 26.8134 34.6249 27.1634 34.6124Z" fill="#48B8B9"/>
<path fill-rule="evenodd" clip-rule="evenodd" d="M32.7758 28.8372C32.7758 29.1872 32.5008 29.4747 32.1508 29.4747L29.6758 29.5122C29.3258 29.5122 29.0383 29.2372 29.0383 28.8872C29.0383 28.5372 29.3133 28.2497 29.6633 28.2497L32.1383 28.2122C32.4883 28.2122 32.7758 28.4872 32.7758 28.8372Z" fill="#48B8B9"/>
<path fill-rule="evenodd" clip-rule="evenodd" d="M13.0006 19.6624C13.0006 19.3124 13.2756 19.0249 13.6256 19.0249L16.1006 18.9874C16.4506 18.9874 16.7381 19.2624 16.7381 19.6124C16.7381 19.9624 16.4631 20.25 16.1131 20.25L13.6381 20.2875C13.2881 20.2875 13.0006 20.0124 13.0006 19.6624Z" fill="#48B8B9"/>
</svg>
