<svg width="24" height="24" viewBox="0 0 24 24" fill="none" xmlns="http://www.w3.org/2000/svg">
<path d="M21.8426 8.89214C21.8333 7.33589 21.2614 5.86402 20.2254 4.74839C19.1333 3.57183 17.6708 2.93902 16.1192 3.00464C14.7598 3.05152 13.452 3.60933 12.4254 4.56558C11.3989 3.60933 10.0911 3.05152 8.7317 3.00464C7.18951 2.94839 5.71295 3.57183 4.62545 4.74839C3.5942 5.86402 3.01764 7.3312 3.00826 8.89214C2.98951 9.10777 2.97545 9.77808 3.28951 10.7906H4.64889H4.97701H6.53795C6.72545 10.7906 6.89889 10.8843 6.99732 11.039L7.66295 12.0328L9.9692 8.80308C10.077 8.65308 10.2411 8.57339 10.4286 8.5687C10.6114 8.57339 10.7801 8.66245 10.8833 8.81714L12.3176 10.7906H14.3333C14.5254 10.2468 15.0364 9.85308 15.6458 9.85308C16.4192 9.85308 17.0426 10.4812 17.0426 11.25C17.0426 12.0234 16.4145 12.6468 15.6458 12.6468C15.1114 12.6468 14.652 12.3421 14.4176 11.9015H12.1161C12.0973 11.9015 12.0833 11.8921 12.0645 11.8921C11.877 11.9015 11.6895 11.8218 11.577 11.6531L10.4051 10.0968L8.09889 13.3265C7.99576 13.4718 7.82701 13.5609 7.64889 13.5609C7.6442 13.5609 7.6442 13.5609 7.63951 13.5609C7.4567 13.5562 7.28795 13.4671 7.18482 13.3125L6.23795 11.8968H5.00045C4.99107 11.8968 4.9817 11.9015 4.96764 11.9015H3.71139C4.67701 13.9734 6.90357 16.9031 11.9895 20.1515C12.1208 20.2359 12.2661 20.2734 12.4114 20.2734C12.5567 20.2734 12.7067 20.2312 12.8333 20.1515C21.9411 14.3531 21.8942 9.54839 21.8426 8.89214Z" fill="#376EB6"/>
</svg>
