<svg width="24" height="24" viewBox="0 0 24 24" fill="none" xmlns="http://www.w3.org/2000/svg">
<path d="M16.9198 21.4198H9.03977C8.65977 21.4198 8.35977 21.1198 8.35977 20.7398V3.44982C8.35977 3.06982 8.65977 2.76982 9.03977 2.76982H16.9198C17.2998 2.76982 17.5998 3.06982 17.5998 3.44982V20.7398C17.5998 21.1198 17.2898 21.4198 16.9198 21.4198Z" fill="#48B7B8"/>
<path d="M7.95981 21.5599C7.50981 21.5599 7.14981 21.1999 7.14981 20.7499V3.44994C7.14981 2.99994 7.50981 2.63994 7.95981 2.63994H15.8398C16.2898 2.63994 16.6498 2.99994 16.6498 3.44994V20.7399C16.6498 21.1899 16.2898 21.5499 15.8398 21.5499H7.95981V21.5599Z" fill="#0154A0"/>
<path d="M15.8299 2.7698C16.2099 2.7698 16.5099 3.0698 16.5099 3.4498V20.7398C16.5099 21.1198 16.2099 21.4198 15.8299 21.4198H7.95993C7.57993 21.4198 7.27993 21.1198 7.27993 20.7398V3.4498C7.27993 3.0698 7.57993 2.7698 7.95993 2.7698H15.8299ZM15.8299 2.4998H7.95993C7.43993 2.4998 7.01993 2.9198 7.01993 3.4398V20.7298C7.01993 21.2498 7.43993 21.6698 7.95993 21.6698H15.8399C16.3599 21.6698 16.7799 21.2498 16.7799 20.7298V3.4498C16.7799 2.9298 16.3599 2.4998 15.8299 2.4998Z" fill="white"/>
<path d="M14.36 18.6499H8.79003C8.70003 18.6499 8.62003 18.5699 8.62003 18.4799C8.62003 18.3899 8.70003 18.3099 8.79003 18.3099H14.36C14.45 18.3099 14.53 18.3899 14.53 18.4799C14.53 18.5799 14.45 18.6499 14.36 18.6499Z" fill="white"/>
<path d="M15.0399 15.5598H8.75987C8.59987 15.5598 8.45987 15.4298 8.45987 15.2598V4.77978C8.45987 4.61978 8.58987 4.47978 8.75987 4.47978H15.0399C15.1999 4.47978 15.3399 4.60978 15.3399 4.77978V15.2598C15.3299 15.4298 15.1999 15.5598 15.0399 15.5598Z" fill="white"/>
<path d="M10.5698 17.2398H8.72979C8.66979 17.2398 8.62979 17.1898 8.62979 17.1398V16.6198C8.62979 16.5598 8.67979 16.5198 8.72979 16.5198H10.5698C10.6298 16.5198 10.6698 16.5698 10.6698 16.6198V17.1398C10.6698 17.1898 10.6298 17.2398 10.5698 17.2398Z" fill="#48B7B8"/>
<path d="M14.2798 17.2398H12.4398C12.3798 17.2398 12.3398 17.1898 12.3398 17.1398V16.6198C12.3398 16.5598 12.3898 16.5198 12.4398 16.5198H14.2798C14.3398 16.5198 14.3798 16.5698 14.3798 16.6198V17.1398C14.3898 17.1898 14.3398 17.2398 14.2798 17.2398Z" fill="#48B7B8"/>
<path d="M15.6001 8.88994H8.2001V9.51994H15.6001V8.88994Z" fill="#0154A0"/>
<path d="M6.80979 7.98968C5.60979 7.98968 4.62979 7.00968 4.62979 5.80968C4.62979 4.60968 5.60979 3.62968 6.80979 3.62968H11.1998C12.3998 3.62968 13.3798 4.60968 13.3798 5.80968C13.3798 7.00968 12.3998 7.98968 11.1998 7.98968H6.80979Z" fill="#0154A0"/>
<path d="M11.1899 3.7698C12.3199 3.7698 13.2399 4.6898 13.2399 5.8198C13.2399 6.9498 12.3199 7.8598 11.1899 7.8598H6.80991C5.67991 7.8598 4.75991 6.9398 4.75991 5.8098C4.75991 4.6798 5.67991 3.7598 6.80991 3.7598H11.1899M11.1899 3.4998H6.80991C5.53991 3.4998 4.49991 4.5398 4.49991 5.8098C4.49991 7.0798 5.53991 8.1198 6.80991 8.1198H11.1999C12.4699 8.1198 13.5099 7.0798 13.5099 5.8098C13.5099 4.5398 12.4699 3.4998 11.1899 3.4998Z" fill="white"/>
<path d="M6.80991 7.8598C7.94209 7.8598 8.85967 6.94175 8.85967 5.80957C8.85967 4.67738 7.94209 3.7598 6.80991 3.7598C5.67773 3.7598 4.75991 4.67762 4.75991 5.8098C4.75991 6.94199 5.67773 7.8598 6.80991 7.8598Z" fill="#48B7B8"/>
</svg>
