<svg width="48" height="48" viewBox="0 0 48 48" fill="none" xmlns="http://www.w3.org/2000/svg">
<path d="M0 24C0 10.7452 10.7452 0 24 0C37.2548 0 48 10.7452 48 24C48 37.2548 37.2548 48 24 48C10.7452 48 0 37.2548 0 24Z" fill="#ECF3FF"/>
<path d="M22.9529 12.0002C24.8654 12.0002 26.4154 13.5502 26.4154 15.4627C26.4154 17.3752 24.8654 18.9252 22.9529 18.9252C21.0404 18.9252 19.4904 17.3752 19.4904 15.4627C19.4779 13.5502 21.0279 12.0002 22.9529 12.0002ZM22.7779 19.9127C23.7904 19.9127 24.7279 19.5877 25.4904 19.0377C25.6779 18.9002 25.9029 18.8627 26.1279 18.9127C26.6654 19.0502 27.1279 19.3252 27.6154 19.9127L30.5529 25.1252C31.2779 26.7877 29.6279 27.6127 28.6904 26.3252L26.4529 22.8877L26.6779 27.6752L26.3404 34.9002C26.3404 36.6252 24.2029 36.7127 23.8654 35.2127L22.9154 27.9877H22.8529L21.9029 35.2127C21.5654 36.7127 19.4279 36.6252 19.4279 34.9002L19.0904 27.6752L19.3154 22.8877L17.0404 26.3377C16.1154 27.6127 14.4529 26.8002 15.1779 25.1377L18.1154 19.9252C18.6029 19.3377 19.0654 19.0627 19.6029 18.9252C19.8279 18.8627 20.0529 18.9127 20.2404 19.0502C21.0029 19.6002 21.9404 19.9252 22.9529 19.9252" fill="#376EB6"/>
<path fill-rule="evenodd" clip-rule="evenodd" d="M20.978 22.0623C21.178 22.0623 21.353 22.2248 21.353 22.4373C21.353 22.6498 21.1905 22.8123 20.978 22.8123C20.778 22.8123 20.603 22.6498 20.603 22.4373C20.603 22.2248 20.778 22.0623 20.978 22.0623Z" fill="white"/>
<path fill-rule="evenodd" clip-rule="evenodd" d="M21.0408 25.4498C21.2408 25.4498 21.4158 25.6123 21.4158 25.8248C21.4158 26.0248 21.2533 26.1998 21.0408 26.1998C20.8408 26.1998 20.6658 26.0373 20.6658 25.8248C20.6658 25.6248 20.8408 25.4498 21.0408 25.4498Z" fill="white"/>
<path fill-rule="evenodd" clip-rule="evenodd" d="M24.6404 21.2752C24.8404 21.2752 25.0154 21.4377 25.0154 21.6502C25.0154 21.8502 24.8529 22.0252 24.6404 22.0252C24.4279 22.0252 24.2654 21.8627 24.2654 21.6502C24.2779 21.4502 24.4404 21.2752 24.6404 21.2752Z" fill="white"/>
<path fill-rule="evenodd" clip-rule="evenodd" d="M25.3408 25.2124C25.5408 25.2124 25.7158 25.3749 25.7158 25.5874C25.7158 25.7874 25.5533 25.9624 25.3408 25.9624C25.1283 25.9624 24.9658 25.7999 24.9658 25.5874C24.9658 25.3874 25.1283 25.2124 25.3408 25.2124Z" fill="white"/>
<path fill-rule="evenodd" clip-rule="evenodd" d="M22.8908 25.2124C23.0908 25.2124 23.2658 25.3749 23.2658 25.5874C23.2658 25.7874 23.1033 25.9624 22.8908 25.9624C22.6908 25.9624 22.5158 25.7999 22.5158 25.5874C22.5283 25.3874 22.6908 25.2124 22.8908 25.2124Z" fill="white"/>
<path fill-rule="evenodd" clip-rule="evenodd" d="M24.3404 23.9002C24.5404 23.9002 24.7154 24.0627 24.7154 24.2752C24.7154 24.4877 24.5529 24.6502 24.3404 24.6502C24.1404 24.6502 23.9654 24.4877 23.9654 24.2752C23.9654 24.0627 24.1279 23.9002 24.3404 23.9002Z" fill="white"/>
<path fill-rule="evenodd" clip-rule="evenodd" d="M23.4279 22.3377C23.6279 22.3377 23.8029 22.5002 23.8029 22.7127C23.8029 22.9127 23.6404 23.0877 23.4279 23.0877C23.2154 23.0877 23.0529 22.9252 23.0529 22.7127C23.0529 22.5127 23.2279 22.3377 23.4279 22.3377Z" fill="white"/>
<path fill-rule="evenodd" clip-rule="evenodd" d="M21.7779 23.7127C21.9779 23.7127 22.1529 23.8752 22.1529 24.0877C22.1529 24.2877 21.9904 24.4627 21.7779 24.4627C21.5779 24.4627 21.4029 24.3002 21.4029 24.0877C21.4029 23.8752 21.5654 23.7127 21.7779 23.7127Z" fill="white"/>
<path d="M29.0155 21.7377C31.1901 21.7377 32.953 19.9748 32.953 17.8002C32.953 15.6255 31.1901 13.8627 29.0155 13.8627C26.8408 13.8627 25.078 15.6255 25.078 17.8002C25.078 19.9748 26.8408 21.7377 29.0155 21.7377Z" fill="#48B8B9"/>
<path d="M29.0155 14.1002C31.053 14.1002 32.7155 15.7502 32.7155 17.8002C32.7155 19.8502 31.0655 21.5002 29.0155 21.5002C26.978 21.5002 25.3155 19.8502 25.3155 17.8002C25.3155 15.7502 26.9655 14.1002 29.0155 14.1002ZM29.0155 13.6252C26.7155 13.6252 24.8405 15.5002 24.8405 17.8002C24.8405 20.1002 26.7155 21.9752 29.0155 21.9752C31.3155 21.9752 33.1905 20.1002 33.1905 17.8002C33.1905 15.5002 31.3155 13.6252 29.0155 13.6252Z" fill="white"/>
<path fill-rule="evenodd" clip-rule="evenodd" d="M30.3405 18.4877C30.528 18.3752 30.7655 18.4252 30.878 18.6002C30.8905 18.6127 30.903 18.6377 30.903 18.6502C31.078 18.5502 31.3155 18.6127 31.428 18.7877C31.5155 18.9252 31.503 19.1127 31.4155 19.2377C31.4405 19.2627 31.478 19.2877 31.4905 19.3252C31.5905 19.4752 31.5405 19.6877 31.3905 19.7877C31.2405 19.8877 31.028 19.8377 30.928 19.6877C30.8655 19.5877 30.853 19.4502 30.9155 19.3502C30.853 19.3252 30.803 19.2752 30.7655 19.2127C30.753 19.2002 30.7405 19.1752 30.7405 19.1627C30.5655 19.2627 30.328 19.2002 30.2155 19.0252C30.1155 18.8502 30.1655 18.6127 30.3405 18.4877Z" fill="white"/>
<path fill-rule="evenodd" clip-rule="evenodd" d="M27.3405 16.5877C27.3405 16.4377 27.2155 16.3002 27.053 16.3002C26.903 16.3002 26.7655 16.4252 26.7655 16.5877C26.7655 16.7377 26.8905 16.8752 27.053 16.8752C27.2155 16.8752 27.3405 16.7377 27.3405 16.5877Z" fill="white"/>
<path fill-rule="evenodd" clip-rule="evenodd" d="M26.5155 17.6502C26.6405 17.5002 26.853 17.4877 26.9905 17.6002C27.1405 17.7252 27.153 17.9377 27.0405 18.0752C27.0405 18.0752 26.6655 18.5252 27.4405 18.8252C29.078 19.4377 28.2905 20.5502 28.2905 20.5627C28.178 20.7127 27.9655 20.7502 27.8155 20.6502C27.6655 20.5377 27.628 20.3252 27.728 20.1752C27.728 20.1752 28.0155 19.7752 27.203 19.4627C25.528 18.8377 26.5155 17.6502 26.5155 17.6502Z" fill="white"/>
<path fill-rule="evenodd" clip-rule="evenodd" d="M29.0655 17.1627C29.2405 17.0752 29.4405 17.1502 29.5155 17.3127C29.603 17.4877 29.528 17.6877 29.3655 17.7627C29.3655 17.7627 29.1155 17.8877 29.153 18.0127C29.3655 18.9002 28.3405 18.7502 28.3405 18.7377C28.153 18.7127 28.028 18.5377 28.053 18.3502C28.078 18.1627 28.253 18.0377 28.4405 18.0627C28.4405 18.0627 28.503 18.2627 28.4905 18.1627C28.328 17.5127 29.0655 17.1627 29.0655 17.1627Z" fill="white"/>
<path fill-rule="evenodd" clip-rule="evenodd" d="M29.3029 15.8002C29.4029 15.9627 29.3529 16.1752 29.1904 16.2627C29.0279 16.3627 28.8154 16.3127 28.7279 16.1502C28.7279 16.1502 28.5904 15.9127 28.4654 15.9627C27.6029 16.2502 27.6654 15.2377 27.6654 15.2252C27.6779 15.0377 27.8279 14.8877 28.0154 14.9002C28.2029 14.9127 28.3529 15.0627 28.3404 15.2502C28.3404 15.2502 28.1529 15.3377 28.2404 15.3127C28.8904 15.0877 29.3029 15.7877 29.3029 15.8002Z" fill="white"/>
<path fill-rule="evenodd" clip-rule="evenodd" d="M30.803 15.7377C30.978 15.7377 31.128 15.8502 31.2405 16.0252C31.378 16.0002 31.5655 15.9502 31.6155 15.9502C31.7405 15.9252 31.778 16.1377 31.628 16.1877C31.553 16.2127 31.4405 16.2377 31.353 16.2627C31.378 16.3627 31.3905 16.4627 31.3905 16.5627C31.528 16.6002 31.6905 16.6377 31.7405 16.6627C31.853 16.7002 31.803 16.9002 31.6405 16.8752C31.5655 16.8627 31.453 16.8377 31.353 16.8127C31.328 16.9002 31.303 16.9752 31.2655 17.0502C31.3655 17.1502 31.4905 17.2752 31.528 17.3127C31.6155 17.4002 31.4655 17.5502 31.3405 17.4502C31.278 17.4002 31.1905 17.3252 31.128 17.2627C31.028 17.3252 30.9155 17.3752 30.803 17.3752C30.6905 17.3752 30.578 17.3252 30.4905 17.2377C30.4155 17.3002 30.328 17.3752 30.278 17.4252C30.153 17.5252 30.003 17.3752 30.0905 17.2877C30.128 17.2502 30.253 17.1252 30.353 17.0252C30.3155 16.9502 30.2905 16.8752 30.2655 16.7877C30.1655 16.8127 30.0655 16.8377 29.978 16.8502C29.8155 16.8752 29.7655 16.6752 29.878 16.6377C29.928 16.6252 30.0905 16.5752 30.228 16.5377C30.228 16.4252 30.2405 16.3252 30.2655 16.2377C30.1655 16.2127 30.0655 16.1877 29.9905 16.1627C29.8405 16.1127 29.878 15.9127 30.003 15.9252C30.053 15.9377 30.2405 15.9752 30.378 16.0002C30.478 15.8377 30.628 15.7377 30.803 15.7377Z" fill="white"/>
<path fill-rule="evenodd" clip-rule="evenodd" d="M30.0529 20.1127C30.0529 19.9627 29.928 19.8252 29.7655 19.8252C29.603 19.8252 29.478 19.9502 29.478 20.1127C29.478 20.2752 29.603 20.4002 29.7655 20.4002C29.928 20.4002 30.0529 20.2752 30.0529 20.1127Z" fill="white"/>
</svg>
