<svg width="25" height="24" viewBox="0 0 25 24" fill="none" xmlns="http://www.w3.org/2000/svg">
<path fill-rule="evenodd" clip-rule="evenodd" d="M3.49962 11.5C3.49962 6.25329 7.75291 2 12.9996 2C18.2463 2 22.4996 6.25329 22.4996 11.5C22.4996 16.7467 18.2463 21 12.9996 21C11.798 21 10.6462 20.7764 9.58527 20.3677C9.49432 20.3326 9.44163 20.3124 9.40279 20.2984C9.39803 20.2967 9.39392 20.2953 9.39042 20.2941C9.38915 20.2941 9.38779 20.2942 9.38634 20.2944C9.35472 20.2968 9.31156 20.3012 9.22901 20.3097L4.10798 20.8391C4.09672 20.8402 4.08542 20.8414 4.0741 20.8426C3.85992 20.8648 3.63647 20.8879 3.44958 20.8901C3.26383 20.8923 2.92904 20.8818 2.60804 20.6859C2.23176 20.4564 1.97547 20.073 1.90725 19.6376C1.84905 19.2661 1.96733 18.9527 2.04036 18.7819C2.11383 18.61 2.22065 18.4124 2.32304 18.223L3.9749 15.1655C4.04636 15.0332 4.08456 14.962 4.11026 14.909C4.11161 14.9063 4.11286 14.9036 4.11401 14.9012C4.11209 14.8943 4.10975 14.8861 4.10693 14.8766C4.08528 14.8033 4.05197 14.7039 3.99537 14.536C3.67361 13.5814 3.49962 12.56 3.49962 11.5ZM12.9996 4C8.85748 4 5.49962 7.35786 5.49962 11.5C5.49962 12.34 5.63733 13.1458 5.89061 13.8972C5.89865 13.9211 5.90695 13.9455 5.91541 13.9703C5.99656 14.2089 6.09187 14.489 6.11193 14.7425C6.13022 14.9736 6.11355 15.169 6.05638 15.3936C5.99386 15.6393 5.86679 15.8729 5.76373 16.0623C5.75374 16.0807 5.74398 16.0986 5.73452 16.1161L4.27872 18.8108L9.02336 18.3203C9.03413 18.3192 9.04517 18.318 9.05648 18.3169C9.17548 18.3044 9.32296 18.2889 9.46769 18.2944C9.59997 18.2995 9.71144 18.3143 9.84043 18.344C9.98203 18.3767 10.1356 18.4361 10.2652 18.4863C10.2785 18.4914 10.2915 18.4965 10.3043 18.5014C11.1394 18.8231 12.0477 19 12.9996 19C17.1418 19 20.4996 15.6421 20.4996 11.5C20.4996 7.35786 17.1418 4 12.9996 4ZM12.9996 7.5C13.5519 7.5 13.9996 7.94772 13.9996 8.5V10.5H15.9996C16.5519 10.5 16.9996 10.9477 16.9996 11.5C16.9996 12.0523 16.5519 12.5 15.9996 12.5H13.9996V14.5C13.9996 15.0523 13.5519 15.5 12.9996 15.5C12.4473 15.5 11.9996 15.0523 11.9996 14.5V12.5H9.99962C9.44733 12.5 8.99962 12.0523 8.99962 11.5C8.99962 10.9477 9.44733 10.5 9.99962 10.5H11.9996V8.5C11.9996 7.94772 12.4473 7.5 12.9996 7.5Z" fill="white"/>
</svg>
