<svg width="25" height="24" viewBox="0 0 25 24" fill="none" xmlns="http://www.w3.org/2000/svg">
<path d="M13.5227 21.2404C8.8273 21.4467 6.61636 20.0027 5.80464 19.2672C5.57144 19.0564 5.53556 18.6976 5.72392 18.442L5.98403 18.0832C6.12754 17.8859 6.23965 17.6706 6.32038 17.4374L11.1638 3.37803C11.2445 3.14034 11.4598 2.96992 11.7109 2.9475C15.2269 2.62909 17.8235 3.68298 18.855 4.19872C19.142 4.34223 19.2766 4.67409 19.1734 4.97456L14.3165 19.3031C14.2358 19.5452 14.191 19.7964 14.191 20.052V20.5408C14.191 20.7561 14.0923 20.9624 13.9219 21.0924C13.8053 21.1821 13.6663 21.2315 13.5227 21.2404Z" fill="#376EB5"/>
<path d="M19.8415 4.63758C19.6083 4.52098 19.2944 4.37747 18.9042 4.22499C19.1554 4.38195 19.2675 4.6914 19.1733 4.97393L14.3164 19.3024C14.2357 19.5446 14.1909 19.7957 14.1909 20.0514V20.5402C14.1909 20.7554 14.0922 20.9617 13.9218 21.0918C13.8097 21.1815 13.6662 21.2353 13.5227 21.2398C9.77796 21.4057 7.61635 20.5178 6.47725 19.7778C6.50864 19.8316 6.54452 19.8809 6.59385 19.9258C7.41903 20.6702 9.66136 22.1367 14.4286 21.9304C14.5765 21.9259 14.7156 21.8721 14.8322 21.7824C15.0071 21.6479 15.1057 21.4416 15.1057 21.2218V20.7241C15.1057 20.4639 15.1461 20.2083 15.2313 19.9661L20.1599 5.42688C20.2676 5.11744 20.1286 4.78109 19.8415 4.63758Z" fill="#1F417F"/>
<path d="M12.4196 20.3518C7.72412 20.558 5.51318 19.114 4.70146 18.3785C4.46826 18.1677 4.43238 17.809 4.62074 17.5533L4.88085 17.1946C5.02436 16.9972 5.13647 16.782 5.2172 16.5488L10.0606 2.48935C10.1414 2.25167 10.3566 2.08125 10.6078 2.05883C14.1237 1.74042 16.7203 2.79431 17.7518 3.31005C18.0388 3.45356 18.1734 3.78542 18.0702 4.08589L13.2089 18.4099C13.1281 18.6521 13.0833 18.9032 13.0833 19.1588V19.6477C13.0833 19.8629 12.9846 20.0692 12.8142 20.1993C12.7021 20.289 12.5631 20.3428 12.4196 20.3518Z" fill="#376EB5"/>
<path d="M18.7343 3.74969C18.5011 3.63308 18.1872 3.48958 17.797 3.3371C18.0482 3.49406 18.1603 3.8035 18.0661 4.08604L13.2092 18.41C13.1285 18.6522 13.0836 18.9034 13.0836 19.159V19.6478C13.0836 19.8631 12.985 20.0694 12.8146 20.1994C12.7024 20.2891 12.5589 20.3429 12.4154 20.3474C8.67073 20.5133 6.50913 19.6254 5.37002 18.8854C5.40142 18.9392 5.43729 18.9886 5.48662 19.0334C6.3118 19.7779 8.55413 21.2443 13.3213 21.038C13.4693 21.0336 13.6083 20.9797 13.7249 20.8901C13.8998 20.7555 13.9985 20.5492 13.9985 20.3295V19.8317C13.9985 19.5716 14.0389 19.3159 14.1241 19.0738L19.0527 4.5345C19.1604 4.22954 19.0258 3.8932 18.7343 3.74969Z" fill="#1F417F"/>
<path d="M13.3834 15.0739C13.4597 15.0335 13.5135 14.9662 13.5404 14.8855L16.9532 4.42729C17.0339 4.1896 16.9263 3.92949 16.7066 3.82186C15.8993 3.41824 13.8723 2.59307 11.1276 2.84421C10.9303 2.86215 10.7644 2.9922 10.6971 3.18056L7.21254 13.2935C7.18563 13.3787 7.19012 13.4684 7.23048 13.5446C7.28429 13.6522 7.39193 13.724 7.51301 13.7285C8.26643 13.7554 11.0514 13.9258 12.9574 15.1098C13.0561 15.1725 13.1816 15.1815 13.2893 15.1232L13.3834 15.0739Z" fill="#48B7B8"/>
<path d="M11.1057 5.31984L9.14592 10.9974C9.0652 11.2351 9.20422 11.4907 9.44639 11.549L12.635 12.3383C12.8502 12.3921 13.0745 12.2711 13.1418 12.0558L15.0522 6.23022C15.1329 5.98805 14.9805 5.72794 14.7338 5.67861L11.5901 5.0373C11.3838 4.99694 11.1775 5.11803 11.1057 5.31984Z" fill="white"/>
<path d="M9.17731 18.8186C10.2869 18.8186 11.1864 17.9191 11.1864 16.8095C11.1864 15.6999 10.2869 14.8004 9.17731 14.8004C8.0677 14.8004 7.16818 15.6999 7.16818 16.8095C7.16818 17.9191 8.0677 18.8186 9.17731 18.8186Z" fill="white"/>
<path d="M9.97998 16.1947C10.1235 16.3741 10.2087 16.5983 10.2087 16.8449C10.2087 17.4145 9.74678 17.8764 9.17723 17.8764C8.60767 17.8764 8.14575 17.4145 8.14575 16.8449C8.14575 16.3696 8.46416 15.9704 8.89918 15.8493" stroke="#48B7B8" stroke-width="0.293117" stroke-miterlimit="10" stroke-linecap="round" stroke-linejoin="round"/>
<path d="M9.57678 15.6251L9.06105 17.0154" stroke="#48B7B8" stroke-width="0.293117" stroke-miterlimit="10" stroke-linecap="round" stroke-linejoin="round"/>
<path d="M18.3305 5.90689L15.4917 14.0196C15.4514 14.1407 15.4828 14.2753 15.5814 14.3605L16.6577 15.3067C16.6577 15.3067 17.4291 15.6117 17.8193 14.504L20.2544 7.35095C20.3307 7.1312 20.2544 6.89351 20.0751 6.75001L18.7386 5.71853C18.5772 5.65126 18.3888 5.73647 18.3305 5.90689Z" fill="#48B7B8"/>
<path d="M16.8775 15.3072L15.8012 14.3609C15.7025 14.2757 15.6711 14.1412 15.7115 14.0201L18.5503 5.90733C18.5817 5.81764 18.6534 5.75037 18.7386 5.71897C18.5727 5.65619 18.3888 5.7414 18.3305 5.90733L15.4917 14.0201C15.4514 14.1412 15.4828 14.2757 15.5814 14.3609L16.6577 15.3072C16.6577 15.3072 16.8057 15.3655 17.0075 15.3386C16.9268 15.3251 16.8775 15.3072 16.8775 15.3072Z" fill="#329693"/>
</svg>
