<svg width="48" height="48" viewBox="0 0 48 48" fill="none" xmlns="http://www.w3.org/2000/svg">
<path fill-rule="evenodd" clip-rule="evenodd" d="M25 15.0198C24.8143 15.0029 24.5391 15 24.0118 15H20.8C19.9434 15 19.3611 15.0008 18.911 15.0376C18.4726 15.0734 18.2484 15.1383 18.092 15.218C17.7157 15.4097 17.4097 15.7157 17.218 16.092C17.1383 16.2484 17.0734 16.4726 17.0376 16.911C17.0008 17.3611 17 17.9434 17 18.8V29.2C17 30.0566 17.0008 30.6389 17.0376 31.089C17.0734 31.5274 17.1383 31.7516 17.218 31.908C17.4097 32.2843 17.7157 32.5903 18.092 32.782C18.2484 32.8617 18.4726 32.9266 18.911 32.9625C19.3611 32.9992 19.9434 33 20.8 33H27.2C28.0566 33 28.6389 32.9992 29.089 32.9625C29.5274 32.9266 29.7516 32.8617 29.908 32.782C30.2843 32.5903 30.5903 32.2843 30.782 31.908C30.8617 31.7516 30.9266 31.5274 30.9624 31.089C30.9992 30.6389 31 30.0566 31 29.2V21.9882C31 21.4609 30.9971 21.1858 30.9802 21.0001L27.5681 21.0001C27.3157 21.0001 27.0699 21.0001 26.8618 20.9831C26.6332 20.9645 26.3634 20.9204 26.092 20.7821C25.7157 20.5903 25.4097 20.2844 25.218 19.9081C25.0797 19.6366 25.0356 19.3669 25.0169 19.1383C24.9999 18.9301 25 18.6843 25 18.432L25 15.0198ZM26.3936 13.35C26.1677 13.2487 25.9326 13.1685 25.6911 13.1105C25.2284 12.9994 24.7487 12.9997 24.1137 13C24.0801 13 24.0462 13 24.0118 13L20.7587 13C19.9537 13 19.2894 13 18.7482 13.0442C18.1861 13.0901 17.6694 13.1887 17.184 13.436C16.4314 13.8195 15.8195 14.4314 15.436 15.184C15.1887 15.6694 15.0901 16.1861 15.0442 16.7482C15 17.2894 15 17.9537 15 18.7587V29.2413C15 30.0463 15 30.7106 15.0442 31.2518C15.0901 31.8139 15.1887 32.3306 15.436 32.816C15.8195 33.5686 16.4314 34.1805 17.184 34.564C17.6694 34.8113 18.1861 34.9099 18.7482 34.9558C19.2894 35 19.9537 35 20.7587 35H27.2413C28.0463 35 28.7106 35 29.2518 34.9558C29.8139 34.9099 30.3306 34.8113 30.816 34.564C31.5686 34.1805 32.1805 33.5686 32.564 32.816C32.8113 32.3306 32.9099 31.8139 32.9558 31.2518C33 30.7106 33 30.0463 33 29.2413V21.9882C33 21.9538 33 21.9199 33 21.8864C33.0003 21.2514 33.0006 20.7716 32.8895 20.3089C32.8317 20.0681 32.7518 19.8337 32.6509 19.6084C32.6447 19.5937 32.6381 19.5792 32.6311 19.5649C32.5658 19.4235 32.4922 19.2858 32.4106 19.1526C32.1619 18.7469 31.8225 18.4078 31.3733 17.959C31.3496 17.9353 31.3255 17.9113 31.3012 17.887L28.113 14.6988C28.0887 14.6745 28.0647 14.6504 28.041 14.6267C27.5922 14.1775 27.2531 13.8381 26.8474 13.5894C26.7136 13.5075 26.5754 13.4336 26.4334 13.3681C26.4203 13.3618 26.407 13.3557 26.3936 13.35ZM27 16.4142V18.4001C27 18.6966 27.0008 18.8589 27.0103 18.9754C27.0107 18.9801 27.0111 18.9845 27.0114 18.9886C27.0156 18.989 27.02 18.9894 27.0246 18.9898C27.1412 18.9993 27.3035 19.0001 27.6 19.0001H29.5859L27 16.4142ZM19 25C19 24.4477 19.4477 24 20 24H28C28.5523 24 29 24.4477 29 25C29 25.5523 28.5523 26 28 26H20C19.4477 26 19 25.5523 19 25ZM19 29C19 28.4477 19.4477 28 20 28H26C26.5523 28 27 28.4477 27 29C27 29.5523 26.5523 30 26 30H20C19.4477 30 19 29.5523 19 29Z" fill="#464646"/>
</svg>
