<svg width="48" height="48" viewBox="0 0 48 48" fill="none" xmlns="http://www.w3.org/2000/svg">
<path d="M0 24C0 10.7452 10.7452 0 24 0C37.2548 0 48 10.7452 48 24C48 37.2548 37.2548 48 24 48C10.7452 48 0 37.2548 0 24Z" fill="#ECF3FF"/>
<path fill-rule="evenodd" clip-rule="evenodd" d="M28.3331 32.337H19.4957C18.2958 32.337 17.3333 31.362 17.3333 30.1745V19.0623C17.3333 17.8623 18.3083 16.8998 19.4957 16.8998H28.3331C29.5331 16.8998 30.4956 17.8748 30.4956 19.0623V30.1745C30.5081 31.362 29.5331 32.337 28.3331 32.337Z" fill="#376EB6"/>
<path d="M27.3458 15.3004H20.4834V17.5878H27.3458V15.3004Z" fill="#376EB6"/>
<path fill-rule="evenodd" clip-rule="evenodd" d="M19.8582 12H27.9706C28.3956 12 28.7456 12.35 28.7456 12.775V15.3374C28.7456 15.7624 28.3956 16.1124 27.9706 16.1124H19.8582C19.4332 16.1124 19.0832 15.7624 19.0832 15.3374V12.775C19.0832 12.35 19.4332 12 19.8582 12Z" fill="#48B8B9"/>
<path fill-rule="evenodd" clip-rule="evenodd" d="M27.8834 35.3875C27.1709 35.3875 26.4959 35.1125 25.9959 34.6C25.4959 34.1 25.2209 33.45 25.2084 32.7501C25.1959 32.0501 25.4584 31.4001 25.9459 30.9126L30.0834 26.7752C30.5583 26.3002 31.1958 26.0377 31.8833 26.0377C32.5958 26.0377 33.2708 26.3127 33.7708 26.8252C34.2708 27.3252 34.5458 27.9752 34.5583 28.6752C34.5708 29.3751 34.3083 30.0251 33.8208 30.5126L29.6709 34.65C29.2209 35.125 28.5709 35.3875 27.8834 35.3875Z" fill="#48B8B9"/>
<path d="M31.8958 26.3127C32.4958 26.3127 33.1083 26.5502 33.5833 27.0127C34.4958 27.9252 34.5208 29.4126 33.6333 30.3001L31.5958 32.3376L29.4959 34.4375C29.0584 34.875 28.4834 35.0875 27.8959 35.0875C27.2959 35.0875 26.6834 34.85 26.2084 34.3875C25.2959 33.475 25.2709 31.9876 26.1584 31.1001L28.1959 29.0627L30.2959 26.9627C30.7333 26.5377 31.3208 26.3127 31.8958 26.3127ZM31.8958 25.7377C31.1333 25.7377 30.4208 26.0252 29.8834 26.5627L27.7834 28.6627L25.7459 30.7001C25.2084 31.2376 24.9084 31.9751 24.9209 32.7501C24.9334 33.525 25.2459 34.25 25.7959 34.8C26.3584 35.3625 27.0959 35.675 27.8834 35.675C28.6459 35.675 29.3584 35.3875 29.8959 34.85L31.9958 32.7501L34.0333 30.7126C34.5708 30.1751 34.8708 29.4376 34.8583 28.6627C34.8458 27.8877 34.5333 27.1627 33.9833 26.6127C33.4333 26.0502 32.6958 25.7377 31.8958 25.7377Z" fill="white"/>
<path fill-rule="evenodd" clip-rule="evenodd" d="M30.2959 26.9752C31.1833 26.0877 32.6708 26.1002 33.5833 27.0252C34.4958 27.9377 34.5208 29.4251 33.6333 30.3126L31.5333 32.4126L28.1959 29.0751L30.2959 26.9752Z" fill="#376EB6"/>
<path d="M23.9084 28.5125C26.1037 28.5125 27.8833 26.7329 27.8833 24.5376C27.8833 22.3423 26.1037 20.5627 23.9084 20.5627C21.7131 20.5627 19.9335 22.3423 19.9335 24.5376C19.9335 26.7329 21.7131 28.5125 23.9084 28.5125Z" fill="white"/>
<path fill-rule="evenodd" clip-rule="evenodd" d="M23.3461 21.6997H24.4836C24.5711 21.6997 24.6336 21.7622 24.6336 21.8497V23.8247H26.6085C26.696 23.8247 26.7585 23.8872 26.7585 23.9747V25.1121C26.7585 25.1996 26.696 25.2621 26.6085 25.2621H24.6336V27.2371C24.6336 27.3246 24.5711 27.3871 24.4836 27.3871H23.3461C23.2586 27.3871 23.1961 27.3246 23.1961 27.2371V25.2621H21.2211C21.1336 25.2621 21.0711 25.1996 21.0711 25.1121V23.9747C21.0711 23.8872 21.1336 23.8247 21.2211 23.8247H23.1961V21.8497C23.1961 21.7622 23.2586 21.6997 23.3461 21.6997Z" fill="#48B8B9"/>
<path fill-rule="evenodd" clip-rule="evenodd" d="M20.9457 12.8807C21.0253 12.8807 21.0899 12.9453 21.0899 13.0249V14.8749C21.0899 14.9545 21.0253 15.0191 20.9457 15.0191C20.8661 15.0191 20.8015 14.9545 20.8015 14.8749V13.0249C20.8015 12.9453 20.8661 12.8807 20.9457 12.8807Z" fill="white"/>
<path fill-rule="evenodd" clip-rule="evenodd" d="M23.5707 12.8807C23.6503 12.8807 23.7149 12.9453 23.7149 13.0249V14.8749C23.7149 14.9545 23.6503 15.0191 23.5707 15.0191C23.491 15.0191 23.4265 14.9545 23.4265 14.8749V13.0249C23.4265 12.9453 23.491 12.8807 23.5707 12.8807Z" fill="white"/>
<path fill-rule="evenodd" clip-rule="evenodd" d="M26.2956 12.8807C26.3753 12.8807 26.4398 12.9453 26.4398 13.0249V14.8749C26.4398 14.9545 26.3753 15.0191 26.2956 15.0191C26.216 15.0191 26.1514 14.9545 26.1514 14.8749V13.0249C26.1514 12.9453 26.216 12.8807 26.2956 12.8807Z" fill="white"/>
<path fill-rule="evenodd" clip-rule="evenodd" d="M20.9265 16.8873C20.9265 16.8077 20.9911 16.7432 21.0707 16.7432H24.9207C25.0003 16.7432 25.0648 16.8077 25.0648 16.8873C25.0648 16.967 25.0003 17.0315 24.9207 17.0315H21.0707C20.9911 17.0315 20.9265 16.967 20.9265 16.8873Z" fill="white"/>
<path fill-rule="evenodd" clip-rule="evenodd" d="M25.539 16.8873C25.539 16.8077 25.6035 16.7432 25.6831 16.7432H26.2456C26.3253 16.7432 26.3898 16.8077 26.3898 16.8873C26.3898 16.967 26.3253 17.0315 26.2456 17.0315H25.6831C25.6035 17.0315 25.539 16.967 25.539 16.8873Z" fill="white"/>
</svg>
