<svg width="25" height="24" viewBox="0 0 25 24" fill="none" xmlns="http://www.w3.org/2000/svg">
<path d="M19.4199 11.5117L19.8914 11.3082C20.1485 11.201 20.2664 10.901 20.1592 10.6439L17.2021 3.79745C17.0949 3.54031 16.7949 3.42245 16.5378 3.52959L16.0878 3.72245C16.0878 3.72245 16.0878 3.73316 16.0985 3.73316C16.1092 3.75459 16.1306 3.7653 16.1414 3.78673C16.4521 4.2903 18.2949 8.67245 19.4199 11.5117Z" fill="#48B7B8"/>
<path d="M13.0985 12.7224C12.5306 13.4724 14.2664 13.2046 15.1664 13.0117C14.7485 11.8546 14.2021 10.9546 13.5914 10.3546C13.6449 10.7939 13.7092 11.9296 13.0985 12.7224Z" fill="#48B7B8"/>
<path d="M9.95922 9.31531L9.27351 4.09745L9.14493 4.11888L8.54493 4.19388C8.42708 4.20459 8.34136 4.32245 8.35208 4.44031L8.96279 9.18674C8.97351 9.30459 9.09136 9.39031 9.20922 9.37959L9.92708 9.32602L9.95922 9.31531Z" fill="#48B7B8"/>
<path d="M21.0806 17.6403C21.0378 16.2582 20.6735 14.8974 20.2128 13.5903C20.0628 13.1724 19.7735 12.4224 19.4199 11.5117C18.2949 8.67245 16.4521 4.30102 16.1306 3.80816C16.1199 3.78673 16.0985 3.7653 16.0878 3.75459C15.9271 3.5403 15.7235 3.40102 15.4556 3.43316L9.27351 4.09745L9.94851 9.3153H9.91636L12.7235 9.8403C12.9592 9.88316 13.1949 9.9903 13.3771 10.151C13.4521 10.2153 13.5164 10.2796 13.5806 10.3439C14.1914 10.9546 14.7485 11.8439 15.1556 13.001C15.2628 13.3117 15.3699 13.6332 15.4556 13.9867C15.8199 15.3903 16.0128 17.0939 15.9378 19.076C15.9271 19.4724 15.8949 19.8796 15.8628 20.3082C15.8628 20.3724 15.8521 20.4367 15.8521 20.4903C15.7664 21.3474 17.9521 21.1224 18.3592 21.1224C19.7306 21.1224 20.8985 20.0724 21.0271 18.6796C21.0806 18.326 21.0914 17.9832 21.0806 17.6403Z" fill="#376EB5"/>
<path d="M5.71636 11.051C4.30208 10.526 3.30565 9.27245 3.10208 7.78316C2.91994 6.29387 3.56279 4.82602 4.79494 3.95816L5.05208 4.32245C3.94851 5.09387 3.38065 6.40102 3.55208 7.72959C3.72351 9.05816 4.61279 10.1724 5.87708 10.6439L5.71636 11.051Z" fill="#48B7B8"/>
<path d="M6.45526 9.70083C5.46954 9.43297 4.74097 8.60797 4.6124 7.59011C4.47311 6.57226 4.96597 5.58654 5.85526 5.07226L6.08026 5.45797C5.35169 5.88654 4.94454 6.70083 5.05168 7.53654C5.15883 8.37226 5.75883 9.05797 6.57311 9.28297L6.45526 9.70083Z" fill="#48B7B8"/>
<path d="M7.10874 8.50072C6.49803 8.50072 5.96231 8.04001 5.88731 7.41858C5.84446 7.09715 5.93017 6.76501 6.13374 6.50787C6.33731 6.25072 6.6266 6.0793 6.95874 6.03644L7.01231 6.47572C6.79803 6.49715 6.61588 6.6043 6.48731 6.77572C6.35874 6.94715 6.30517 7.15072 6.3266 7.36501C6.35874 7.57929 6.46588 7.76144 6.6266 7.89001C6.79803 8.01858 7.0016 8.07215 7.21588 8.05072L7.26946 8.49001C7.21588 8.50072 7.16231 8.50072 7.10874 8.50072Z" fill="#48B7B8"/>
<path fill-rule="evenodd" clip-rule="evenodd" d="M20.0112 14.6834C20.0168 14.7794 19.9436 14.8618 19.8476 14.8674L18.1976 14.9638C18.1016 14.9694 18.0192 14.8961 18.0136 14.8002C18.008 14.7042 18.0813 14.6218 18.1773 14.6162L19.8273 14.5198C19.9233 14.5141 20.0056 14.5874 20.0112 14.6834Z" fill="white"/>
<path fill-rule="evenodd" clip-rule="evenodd" d="M20.2362 15.8835C20.2418 15.9795 20.1685 16.0619 20.0725 16.0675L18.4225 16.1639C18.3265 16.1695 18.2442 16.0963 18.2386 16.0003C18.233 15.9043 18.3062 15.8219 18.4022 15.8163L20.0522 15.7199C20.1482 15.7143 20.2306 15.7875 20.2362 15.8835Z" fill="white"/>
<path fill-rule="evenodd" clip-rule="evenodd" d="M20.4507 17.0941C20.4563 17.1901 20.383 17.2725 20.287 17.2781L18.637 17.3745C18.541 17.3801 18.4587 17.3069 18.4531 17.2109C18.4474 17.1149 18.5207 17.0325 18.6167 17.0269L20.2667 16.9305C20.3627 16.9249 20.4451 16.9981 20.4507 17.0941Z" fill="white"/>
</svg>
