<svg width="20" height="21" viewBox="0 0 20 21" fill="none" xmlns="http://www.w3.org/2000/svg">
<path d="M0 10.5C0 4.97715 4.47715 0.5 10 0.5C15.5228 0.5 20 4.97715 20 10.5C20 16.0228 15.5228 20.5 10 20.5C4.47715 20.5 0 16.0228 0 10.5Z" fill="#3C6CE7"/>
<g clip-path="url(#clip0_33_52)">
<path fill-rule="evenodd" clip-rule="evenodd" d="M8.98238 5.91666C8.98561 5.91666 8.98886 5.91666 8.99214 5.91666L11.0176 5.91666C11.0635 5.91665 11.1035 5.91664 11.1416 5.91895C11.6236 5.94814 12.0457 6.25236 12.2258 6.70041C12.2401 6.73585 12.2527 6.77375 12.2672 6.81732L12.2703 6.82656C12.2896 6.88455 12.2938 6.89655 12.2974 6.90541C12.3574 7.05476 12.4981 7.15617 12.6588 7.1659C12.6682 7.16647 12.6823 7.16666 12.7477 7.16666C12.7556 7.16666 12.7633 7.16666 12.7709 7.16666C12.9021 7.16663 12.9985 7.16661 13.081 7.17478C13.8715 7.2531 14.4969 7.87848 14.5752 8.669C14.5834 8.75144 14.5834 8.84396 14.5833 8.96889C14.5833 8.97599 14.5833 8.98319 14.5833 8.9905V12.2672C14.5833 12.6026 14.5833 12.8794 14.5649 13.1049C14.5458 13.3391 14.5047 13.5544 14.4017 13.7566C14.2419 14.0702 13.9869 14.3252 13.6733 14.485C13.4711 14.588 13.2558 14.6291 13.0216 14.6482C12.7961 14.6667 12.5193 14.6667 12.1839 14.6667H7.81612C7.48072 14.6667 7.2039 14.6667 6.97841 14.6482C6.7442 14.6291 6.52891 14.588 6.32669 14.485C6.01308 14.3252 5.75811 14.0702 5.59833 13.7566C5.49529 13.5544 5.45422 13.3391 5.43508 13.1049C5.41666 12.8794 5.41666 12.6026 5.41667 12.2672L5.41667 8.9905C5.41667 8.98319 5.41667 8.97599 5.41667 8.96889C5.41664 8.84396 5.41662 8.75144 5.42479 8.669C5.50312 7.87848 6.12849 7.2531 6.91901 7.17478C7.00148 7.16661 7.09787 7.16663 7.22906 7.16666C7.23669 7.16666 7.24445 7.16666 7.25233 7.16666C7.31767 7.16666 7.33181 7.16647 7.34123 7.1659C7.5019 7.15617 7.64259 7.05476 7.70263 6.90541C7.7062 6.89655 7.71039 6.88455 7.72972 6.82656C7.73076 6.82345 7.73179 6.82036 7.73281 6.8173C7.74731 6.77374 7.75994 6.73584 7.77418 6.70041C7.9543 6.25236 8.37639 5.94814 8.8584 5.91895C8.89652 5.91664 8.93647 5.91665 8.98238 5.91666ZM8.99214 6.74999C8.93102 6.74999 8.91832 6.75018 8.90878 6.75076C8.74811 6.76049 8.60741 6.86189 8.54737 7.01124C8.54381 7.02011 8.53962 7.0321 8.52029 7.09009C8.51925 7.09321 8.51822 7.09629 8.5172 7.09936C8.50269 7.14291 8.49007 7.18081 8.47583 7.21624C8.29571 7.66429 7.87362 7.96851 7.3916 7.99771C7.35346 8.00002 7.31164 8.00001 7.26302 7.99999C7.25949 7.99999 7.25593 7.99999 7.25233 7.99999C7.08783 7.99999 7.03685 8.00052 7.00117 8.00405C6.60591 8.04322 6.29323 8.3559 6.25406 8.75116C6.25051 8.78698 6.25 8.83456 6.25 8.9905V12.25C6.25 12.6069 6.25033 12.8495 6.26565 13.0371C6.28057 13.2197 6.30763 13.3132 6.34083 13.3783C6.42073 13.5351 6.54821 13.6626 6.70501 13.7425C6.77018 13.7757 6.8636 13.8028 7.04627 13.8177C7.23381 13.833 7.47643 13.8333 7.83334 13.8333H12.1667C12.5236 13.8333 12.7662 13.833 12.9537 13.8177C13.1364 13.8028 13.2298 13.7757 13.295 13.7425C13.4518 13.6626 13.5793 13.5351 13.6592 13.3783C13.6924 13.3132 13.7194 13.2197 13.7344 13.0371C13.7497 12.8495 13.75 12.6069 13.75 12.25V8.9905C13.75 8.83456 13.7495 8.78698 13.7459 8.75116C13.7068 8.3559 13.3941 8.04322 12.9988 8.00405C12.9632 8.00052 12.9122 7.99999 12.7477 7.99999L12.737 7.99999C12.6884 8.00001 12.6465 8.00002 12.6084 7.99771C12.1264 7.96851 11.7043 7.66429 11.5242 7.21624C11.5099 7.1808 11.4973 7.1429 11.4828 7.09933L11.4797 7.09009C11.4604 7.0321 11.4562 7.02011 11.4526 7.01124C11.3926 6.86189 11.2519 6.76049 11.0912 6.75076C11.0817 6.75018 11.069 6.74999 11.0079 6.74999H8.99214ZM10 9.45833C9.30965 9.45833 8.75 10.018 8.75 10.7083C8.75 11.3987 9.30965 11.9583 10 11.9583C10.6904 11.9583 11.25 11.3987 11.25 10.7083C11.25 10.018 10.6904 9.45833 10 9.45833ZM7.91667 10.7083C7.91667 9.55773 8.84941 8.62499 10 8.62499C11.1506 8.62499 12.0833 9.55773 12.0833 10.7083C12.0833 11.8589 11.1506 12.7917 10 12.7917C8.84941 12.7917 7.91667 11.8589 7.91667 10.7083Z" fill="white"/>
</g>
<defs>
<clipPath id="clip0_33_52">
<rect width="10" height="10" fill="white" transform="translate(5 5.5)"/>
</clipPath>
</defs>
</svg>
